<?xml version="1.0" encoding="UTF-8" standalone="no"?>
<svg
   width="47"
   height="47"
   viewBox="0 0 47 47"
   version="1.1"
   id="svg218"
   sodipodi:docname="dla-studio-icon.svg"
   inkscape:version="1.4.2 (ebf0e940d0, 2025-05-08)"
   inkscape:export-filename="dla-studio-icon.png"
   inkscape:export-xdpi="32.680851"
   inkscape:export-ydpi="32.680851"
   xmlns:inkscape="http://www.inkscape.org/namespaces/inkscape"
   xmlns:sodipodi="http://sodipodi.sourceforge.net/DTD/sodipodi-0.dtd"
   xmlns="http://www.w3.org/2000/svg"
   xmlns:svg="http://www.w3.org/2000/svg">
  <defs
     id="defs218" />
  <sodipodi:namedview
     id="namedview218"
     pagecolor="#ffffff"
     bordercolor="#000000"
     borderopacity="0.25"
     inkscape:showpageshadow="2"
     inkscape:pageopacity="0.0"
     inkscape:pagecheckerboard="0"
     inkscape:deskcolor="#d1d1d1"
     inkscape:zoom="3.951968"
     inkscape:cx="39.220965"
     inkscape:cy="67.561276"
     inkscape:window-width="1868"
     inkscape:window-height="1011"
     inkscape:window-x="52"
     inkscape:window-y="32"
     inkscape:window-maximized="1"
     inkscape:current-layer="svg218"
     inkscape:export-bgcolor="#000000ff" />
  <rect
     x="27"
     y="21"
     width="1"
     height="1"
     fill="#8f6cea"
     id="rect1" />
  <rect
     x="26"
     y="20"
     width="1"
     height="1"
     fill="#916de9"
     id="rect2" />
  <rect
     x="27"
     y="19"
     width="1"
     height="1"
     fill="#946de7"
     id="rect3" />
  <rect
     x="25"
     y="21"
     width="1"
     height="1"
     fill="#946de7"
     id="rect4" />
  <rect
     x="26"
     y="22"
     width="1"
     height="1"
     fill="#966ee6"
     id="rect5" />
  <rect
     x="26"
     y="18"
     width="1"
     height="1"
     fill="#966ee6"
     id="rect6" />
  <rect
     x="24"
     y="22"
     width="1"
     height="1"
     fill="#966ee6"
     id="rect7" />
  <rect
     x="27"
     y="23"
     width="1"
     height="1"
     fill="#986fe5"
     id="rect8" />
  <rect
     x="27"
     y="17"
     width="1"
     height="1"
     fill="#986fe5"
     id="rect9" />
  <rect
     x="23"
     y="22"
     width="1"
     height="1"
     fill="#986fe5"
     id="rect10" />
  <rect
     x="28"
     y="22"
     width="1"
     height="1"
     fill="#916de9"
     id="rect11" />
  <rect
     x="23"
     y="21"
     width="1"
     height="1"
     fill="#9b70e4"
     id="rect12" />
  <rect
     x="29"
     y="21"
     width="1"
     height="1"
     fill="#946de7"
     id="rect13" />
  <rect
     x="26"
     y="24"
     width="1"
     height="1"
     fill="#9b70e4"
     id="rect14" />
  <rect
     x="28"
     y="16"
     width="1"
     height="1"
     fill="#9b70e4"
     id="rect15" />
  <rect
     x="28"
     y="24"
     width="1"
     height="1"
     fill="#9b70e4"
     id="rect16" />
  <rect
     x="25"
     y="23"
     width="1"
     height="1"
     fill="#986fe5"
     id="rect17" />
  <rect
     x="22"
     y="23"
     width="1"
     height="1"
     fill="#9b70e4"
     id="rect18" />
  <rect
     x="22"
     y="21"
     width="1"
     height="1"
     fill="#9d70e2"
     id="rect19" />
  <rect
     x="22"
     y="20"
     width="1"
     height="1"
     fill="#9f71e1"
     id="rect20" />
  <rect
     x="25"
     y="25"
     width="1"
     height="1"
     fill="#9d70e2"
     id="rect21" />
  <rect
     x="21"
     y="23"
     width="1"
     height="1"
     fill="#9d70e2"
     id="rect22" />
  <rect
     x="23"
     y="24"
     width="1"
     height="1"
     fill="#9d70e2"
     id="rect23" />
  <rect
     x="21"
     y="22"
     width="1"
     height="1"
     fill="#9f71e1"
     id="rect24" />
  <rect
     x="21"
     y="21"
     width="1"
     height="1"
     fill="#9f71e1"
     id="rect25" />
  <rect
     x="30"
     y="22"
     width="1"
     height="1"
     fill="#966ee6"
     id="rect26" />
  <rect
     x="24"
     y="24"
     width="1"
     height="1"
     fill="#9b70e4"
     id="rect27" />
  <rect
     x="20"
     y="23"
     width="1"
     height="1"
     fill="#9f71e1"
     id="rect28" />
  <rect
     x="21"
     y="24"
     width="1"
     height="1"
     fill="#9f71e1"
     id="rect29" />
  <rect
     x="21"
     y="19"
     width="1"
     height="1"
     fill="#a272e0"
     id="rect30" />
  <rect
     x="26"
     y="26"
     width="1"
     height="1"
     fill="#9f71e1"
     id="rect31" />
  <rect
     x="27"
     y="27"
     width="1"
     height="1"
     fill="#a272e0"
     id="rect32" />
  <rect
     x="19"
     y="23"
     width="1"
     height="1"
     fill="#a272e0"
     id="rect33" />
  <rect
     x="29"
     y="25"
     width="1"
     height="1"
     fill="#9d70e2"
     id="rect34" />
  <rect
     x="27"
     y="15"
     width="1"
     height="1"
     fill="#9d70e2"
     id="rect35" />
  <rect
     x="27"
     y="28"
     width="1"
     height="1"
     fill="#a472df"
     id="rect36" />
  <rect
     x="20"
     y="19"
     width="1"
     height="1"
     fill="#a472df"
     id="rect37" />
  <rect
     x="27"
     y="29"
     width="1"
     height="1"
     fill="#a773dd"
     id="rect38" />
  <rect
     x="30"
     y="26"
     width="1"
     height="1"
     fill="#9f71e1"
     id="rect39" />
  <rect
     x="28"
     y="29"
     width="1"
     height="1"
     fill="#a974dc"
     id="rect40" />
  <rect
     x="22"
     y="18"
     width="1"
     height="1"
     fill="#a472df"
     id="rect41" />
  <rect
     x="21"
     y="18"
     width="1"
     height="1"
     fill="#a472df"
     id="rect42" />
  <rect
     x="29"
     y="26"
     width="1"
     height="1"
     fill="#a272e0"
     id="rect43" />
  <rect
     x="25"
     y="18"
     width="1"
     height="1"
     fill="#986fe5"
     id="rect44" />
  <rect
     x="20"
     y="17"
     width="1"
     height="1"
     fill="#a773dd"
     id="rect45" />
  <rect
     x="18"
     y="24"
     width="1"
     height="1"
     fill="#a472df"
     id="rect46" />
  <rect
     x="21"
     y="16"
     width="1"
     height="1"
     fill="#a974dc"
     id="rect47" />
  <rect
     x="23"
     y="17"
     width="1"
     height="1"
     fill="#a773dd"
     id="rect48" />
  <rect
     x="26"
     y="14"
     width="1"
     height="1"
     fill="#9f71e1"
     id="rect49" />
  <rect
     x="29"
     y="28"
     width="1"
     height="1"
     fill="#ab74db"
     id="rect50" />
  <rect
     x="27"
     y="13"
     width="1"
     height="1"
     fill="#a272e0"
     id="rect51" />
  <rect
     x="25"
     y="17"
     width="1"
     height="1"
     fill="#9b70e4"
     id="rect52" />
  <rect
     x="26"
     y="29"
     width="1"
     height="1"
     fill="#a974dc"
     id="rect53" />
  <rect
     x="25"
     y="14"
     width="1"
     height="1"
     fill="#a272e0"
     id="rect54" />
  <rect
     x="24"
     y="16"
     width="1"
     height="1"
     fill="#9d70e2"
     id="rect55" />
  <rect
     x="25"
     y="28"
     width="1"
     height="1"
     fill="#ab74db"
     id="rect56" />
  <rect
     x="25"
     y="29"
     width="1"
     height="1"
     fill="#ab74db"
     id="rect57" />
  <rect
     x="22"
     y="15"
     width="1"
     height="1"
     fill="#ab74db"
     id="rect58" />
  <rect
     x="17"
     y="25"
     width="1"
     height="1"
     fill="#a773dd"
     id="rect59" />
  <rect
     x="31"
     y="21"
     width="1"
     height="1"
     fill="#986fe5"
     id="rect60" />
  <rect
     x="16"
     y="26"
     width="1"
     height="1"
     fill="#a974dc"
     id="rect61" />
  <rect
     x="24"
     y="13"
     width="1"
     height="1"
     fill="#a472df"
     id="rect62" />
  <rect
     x="16"
     y="24"
     width="1"
     height="1"
     fill="#a974dc"
     id="rect63" />
  <rect
     x="29"
     y="30"
     width="1"
     height="1"
     fill="#ab74db"
     id="rect64" />
  <rect
     x="28"
     y="31"
     width="1"
     height="1"
     fill="#ad77db"
     id="rect65" />
  <rect
     x="31"
     y="27"
     width="1"
     height="1"
     fill="#a272e0"
     id="rect66" />
  <rect
     x="26"
     y="30"
     width="1"
     height="1"
     fill="#ab74db"
     id="rect67" />
  <rect
     x="25"
     y="31"
     width="1"
     height="1"
     fill="#ad77db"
     id="rect68" />
  <rect
     x="24"
     y="31"
     width="1"
     height="1"
     fill="#ad7edd"
     id="rect69" />
  <rect
     x="20"
     y="15"
     width="1"
     height="1"
     fill="#ab74db"
     id="rect70" />
  <rect
     x="15"
     y="26"
     width="1"
     height="1"
     fill="#ab74db"
     id="rect71" />
  <rect
     x="21"
     y="25"
     width="1"
     height="1"
     fill="#a272e0"
     id="rect72" />
  <rect
     x="25"
     y="12"
     width="1"
     height="1"
     fill="#a773dd"
     id="rect73" />
  <rect
     x="30"
     y="31"
     width="1"
     height="1"
     fill="#ad77db"
     id="rect74" />
  <rect
     x="20"
     y="26"
     width="1"
     height="1"
     fill="#a472df"
     id="rect75" />
  <rect
     x="23"
     y="32"
     width="1"
     height="1"
     fill="#ae85df"
     id="rect76" />
  <rect
     x="16"
     y="27"
     width="1"
     height="1"
     fill="#ab74db"
     id="rect77" />
  <rect
     x="23"
     y="12"
     width="1"
     height="1"
     fill="#a773dd"
     id="rect78" />
  <rect
     x="32"
     y="20"
     width="1"
     height="1"
     fill="#9b70e4"
     id="rect79" />
  <rect
     x="22"
     y="11"
     width="1"
     height="1"
     fill="#a974dc"
     id="rect80" />
  <rect
     x="23"
     y="10"
     width="1"
     height="1"
     fill="#ab74db"
     id="rect81" />
  <rect
     x="29"
     y="15"
     width="1"
     height="1"
     fill="#9d70e2"
     id="rect82" />
  <rect
     x="15"
     y="28"
     width="1"
     height="1"
     fill="#ad77db"
     id="rect83" />
  <rect
     x="19"
     y="16"
     width="1"
     height="1"
     fill="#a974dc"
     id="rect84" />
  <rect
     x="31"
     y="32"
     width="1"
     height="1"
     fill="#ad7edd"
     id="rect85" />
  <rect
     x="32"
     y="31"
     width="1"
     height="1"
     fill="#ae85df"
     id="rect86" />
  <rect
     x="32"
     y="30"
     width="1"
     height="1"
     fill="#ae8ce2"
     id="rect87" />
  <rect
     x="21"
     y="14"
     width="1"
     height="1"
     fill="#ad77db"
     id="rect88" />
  <rect
     x="30"
     y="15"
     width="1"
     height="1"
     fill="#9f71e1"
     id="rect89" />
  <rect
     x="32"
     y="33"
     width="1"
     height="1"
     fill="#ae85df"
     id="rect90" />
  <rect
     x="31"
     y="14"
     width="1"
     height="1"
     fill="#a272e0"
     id="rect91" />
  <rect
     x="32"
     y="15"
     width="1"
     height="1"
     fill="#a472df"
     id="rect92" />
  <rect
     x="32"
     y="13"
     width="1"
     height="1"
     fill="#a472df"
     id="rect93" />
  <rect
     x="21"
     y="11"
     width="1"
     height="1"
     fill="#ab74db"
     id="rect94" />
  <rect
     x="31"
     y="12"
     width="1"
     height="1"
     fill="#a773dd"
     id="rect95" />
  <rect
     x="15"
     y="23"
     width="1"
     height="1"
     fill="#ab74db"
     id="rect96" />
  <rect
     x="16"
     y="22"
     width="1"
     height="1"
     fill="#ad77db"
     id="rect97" />
  <rect
     x="14"
     y="25"
     width="1"
     height="1"
     fill="#ad77db"
     id="rect98" />
  <rect
     x="32"
     y="26"
     width="1"
     height="1"
     fill="#a472df"
     id="rect99" />
  <rect
     x="33"
     y="34"
     width="1"
     height="1"
     fill="#ae8ce2"
     id="rect100" />
  <rect
     x="23"
     y="9"
     width="1"
     height="1"
     fill="#ad77db"
     id="rect101" />
  <rect
     x="14"
     y="29"
     width="1"
     height="1"
     fill="#ad7edd"
     id="rect102" />
  <rect
     x="32"
     y="35"
     width="1"
     height="1"
     fill="#ae93e4"
     id="rect103" />
  <rect
     x="18"
     y="15"
     width="1"
     height="1"
     fill="#ab74db"
     id="rect104" />
  <rect
     x="31"
     y="36"
     width="1"
     height="1"
     fill="#af99e6"
     id="rect105" />
  <rect
     x="30"
     y="37"
     width="1"
     height="1"
     fill="#afa0e8"
     id="rect106" />
  <rect
     x="24"
     y="33"
     width="1"
     height="1"
     fill="#ae8ce2"
     id="rect107" />
  <rect
     x="31"
     y="38"
     width="1"
     height="1"
     fill="#afa7eb"
     id="rect108" />
  <rect
     x="33"
     y="30"
     width="1"
     height="1"
     fill="#ae93e4"
     id="rect109" />
  <rect
     x="15"
     y="21"
     width="1"
     height="1"
     fill="#ad7edd"
     id="rect110" />
  <rect
     x="24"
     y="9"
     width="1"
     height="1"
     fill="#ad7edd"
     id="rect111" />
  <rect
     x="29"
     y="32"
     width="1"
     height="1"
     fill="#ad7edd"
     id="rect112" />
  <rect
     x="33"
     y="19"
     width="1"
     height="1"
     fill="#9d70e2"
     id="rect113" />
  <rect
     x="14"
     y="20"
     width="1"
     height="1"
     fill="#ae85df"
     id="rect114" />
  <rect
     x="14"
     y="27"
     width="1"
     height="1"
     fill="#ad7edd"
     id="rect115" />
  <rect
     x="33"
     y="27"
     width="1"
     height="1"
     fill="#a773dd"
     id="rect116" />
  <rect
     x="30"
     y="11"
     width="1"
     height="1"
     fill="#a974dc"
     id="rect117" />
  <rect
     x="34"
     y="30"
     width="1"
     height="1"
     fill="#af99e6"
     id="rect118" />
  <rect
     x="30"
     y="39"
     width="1"
     height="1"
     fill="#b0aeed"
     id="rect119" />
  <rect
     x="35"
     y="31"
     width="1"
     height="1"
     fill="#afa0e8"
     id="rect120" />
  <rect
     x="36"
     y="32"
     width="1"
     height="1"
     fill="#afa7eb"
     id="rect121" />
  <rect
     x="13"
     y="29"
     width="1"
     height="1"
     fill="#ae85df"
     id="rect122" />
  <rect
     x="12"
     y="28"
     width="1"
     height="1"
     fill="#ae8ce2"
     id="rect123" />
  <rect
     x="16"
     y="29"
     width="1"
     height="1"
     fill="#ad7edd"
     id="rect124" />
  <rect
     x="23"
     y="34"
     width="1"
     height="1"
     fill="#ae93e4"
     id="rect125" />
  <rect
     x="20"
     y="10"
     width="1"
     height="1"
     fill="#ad77db"
     id="rect126" />
  <rect
     x="13"
     y="20"
     width="1"
     height="1"
     fill="#ae8ce2"
     id="rect127" />
  <rect
     x="17"
     y="15"
     width="1"
     height="1"
     fill="#ad77db"
     id="rect128" />
  <rect
     x="33"
     y="12"
     width="1"
     height="1"
     fill="#a773dd"
     id="rect129" />
  <rect
     x="17"
     y="30"
     width="1"
     height="1"
     fill="#ae85df"
     id="rect130" />
  <rect
     x="25"
     y="8"
     width="1"
     height="1"
     fill="#ae85df"
     id="rect131" />
  <rect
     x="16"
     y="15"
     width="1"
     height="1"
     fill="#ad7edd"
     id="rect132" />
  <rect
     x="12"
     y="19"
     width="1"
     height="1"
     fill="#ae93e4"
     id="rect133" />
  <rect
     x="22"
     y="33"
     width="1"
     height="1"
     fill="#af99e6"
     id="rect134" />
  <rect
     x="33"
     y="21"
     width="1"
     height="1"
     fill="#9d70e2"
     id="rect135" />
  <rect
     x="32"
     y="39"
     width="1"
     height="1"
     fill="#b0aeed"
     id="rect136" />
  <rect
     x="11"
     y="27"
     width="1"
     height="1"
     fill="#ae93e4"
     id="rect137" />
  <rect
     x="31"
     y="10"
     width="1"
     height="1"
     fill="#ab74db"
     id="rect138" />
  <rect
     x="12"
     y="21"
     width="1"
     height="1"
     fill="#ae93e4"
     id="rect139" />
  <rect
     x="37"
     y="32"
     width="1"
     height="1"
     fill="#b0aeed"
     id="rect140" />
  <rect
     x="11"
     y="29"
     width="1"
     height="1"
     fill="#ae93e4"
     id="rect141" />
  <rect
     x="38"
     y="31"
     width="1"
     height="1"
     fill="#b0b5ef"
     id="rect142" />
  <rect
     x="30"
     y="9"
     width="1"
     height="1"
     fill="#ad77db"
     id="rect143" />
  <rect
     x="22"
     y="35"
     width="1"
     height="1"
     fill="#af99e6"
     id="rect144" />
  <rect
     x="29"
     y="36"
     width="1"
     height="1"
     fill="#afa7eb"
     id="rect145" />
  <rect
     x="11"
     y="19"
     width="1"
     height="1"
     fill="#af99e6"
     id="rect146" />
  <rect
     x="39"
     y="32"
     width="1"
     height="1"
     fill="#b0bcf2"
     id="rect147" />
  <rect
     x="21"
     y="36"
     width="1"
     height="1"
     fill="#afa0e8"
     id="rect148" />
  <rect
     x="30"
     y="40"
     width="1"
     height="1"
     fill="#b0b5ef"
     id="rect149" />
  <rect
     x="31"
     y="8"
     width="1"
     height="1"
     fill="#ad7edd"
     id="rect150" />
  <rect
     x="38"
     y="33"
     width="1"
     height="1"
     fill="#b0b5ef"
     id="rect151" />
  <rect
     x="21"
     y="37"
     width="1"
     height="1"
     fill="#afa7eb"
     id="rect152" />
  <rect
     x="24"
     y="7"
     width="1"
     height="1"
     fill="#ae8ce2"
     id="rect153" />
  <rect
     x="34"
     y="26"
     width="1"
     height="1"
     fill="#a974dc"
     id="rect154" />
  <rect
     x="32"
     y="7"
     width="1"
     height="1"
     fill="#ae85df"
     id="rect155" />
  <rect
     x="23"
     y="6"
     width="1"
     height="1"
     fill="#ae93e4"
     id="rect156" />
  <rect
     x="20"
     y="38"
     width="1"
     height="1"
     fill="#b0aeed"
     id="rect157" />
  <rect
     x="16"
     y="31"
     width="1"
     height="1"
     fill="#ae8ce2"
     id="rect158" />
  <rect
     x="19"
     y="9"
     width="1"
     height="1"
     fill="#ad7edd"
     id="rect159" />
  <rect
     x="29"
     y="40"
     width="1"
     height="1"
     fill="#b0bcf2"
     id="rect160" />
  <rect
     x="19"
     y="39"
     width="1"
     height="1"
     fill="#b0b5ef"
     id="rect161" />
  <rect
     x="34"
     y="35"
     width="1"
     height="1"
     fill="#ae93e4"
     id="rect162" />
  <rect
     x="34"
     y="13"
     width="1"
     height="1"
     fill="#a974dc"
     id="rect163" />
  <rect
     x="35"
     y="26"
     width="1"
     height="1"
     fill="#ab74db"
     id="rect164" />
  <rect
     x="24"
     y="5"
     width="1"
     height="1"
     fill="#af99e6"
     id="rect165" />
  <rect
     x="34"
     y="19"
     width="1"
     height="1"
     fill="#9f71e1"
     id="rect166" />
  <rect
     x="36"
     y="26"
     width="1"
     height="1"
     fill="#ad77db"
     id="rect167" />
  <rect
     x="21"
     y="39"
     width="1"
     height="1"
     fill="#b0b5ef"
     id="rect168" />
  <rect
     x="11"
     y="22"
     width="1"
     height="1"
     fill="#af99e6"
     id="rect169" />
  <rect
     x="34"
     y="11"
     width="1"
     height="1"
     fill="#a974dc"
     id="rect170" />
  <rect
     x="33"
     y="39"
     width="1"
     height="1"
     fill="#b0b5ef"
     id="rect171" />
  <rect
     x="25"
     y="4"
     width="1"
     height="1"
     fill="#afa0e8"
     id="rect172" />
  <rect
     x="29"
     y="41"
     width="1"
     height="1"
     fill="#b1c3f4"
     id="rect173" />
  <rect
     x="35"
     y="25"
     width="1"
     height="1"
     fill="#ad77db"
     id="rect174" />
  <rect
     x="32"
     y="40"
     width="1"
     height="1"
     fill="#b0b5ef"
     id="rect175" />
  <rect
     x="33"
     y="6"
     width="1"
     height="1"
     fill="#ae8ce2"
     id="rect176" />
  <rect
     x="35"
     y="36"
     width="1"
     height="1"
     fill="#af99e6"
     id="rect177" />
  <rect
     x="20"
     y="35"
     width="1"
     height="1"
     fill="#afa7eb"
     id="rect178" />
  <rect
     x="30"
     y="42"
     width="1"
     height="1"
     fill="#b1caf6"
     id="rect179" />
  <rect
     x="24"
     y="3"
     width="1"
     height="1"
     fill="#afa7eb"
     id="rect180" />
  <rect
     x="32"
     y="5"
     width="1"
     height="1"
     fill="#ae93e4"
     id="rect181" />
  <rect
     x="10"
     y="30"
     width="1"
     height="1"
     fill="#af99e6"
     id="rect182" />
  <rect
     x="10"
     y="18"
     width="1"
     height="1"
     fill="#afa0e8"
     id="rect183" />
  <rect
     x="19"
     y="37"
     width="1"
     height="1"
     fill="#b0b5ef"
     id="rect184" />
  <rect
     x="18"
     y="8"
     width="1"
     height="1"
     fill="#ae85df"
     id="rect185" />
  <rect
     x="18"
     y="40"
     width="1"
     height="1"
     fill="#b0bcf2"
     id="rect186" />
  <rect
     x="28"
     y="42"
     width="1"
     height="1"
     fill="#b1caf6"
     id="rect187" />
  <rect
     x="33"
     y="4"
     width="1"
     height="1"
     fill="#af99e6"
     id="rect188" />
  <rect
     x="34"
     y="3"
     width="1"
     height="1"
     fill="#afa0e8"
     id="rect189" />
  <rect
     x="9"
     y="31"
     width="1"
     height="1"
     fill="#afa0e8"
     id="rect190" />
  <rect
     x="8"
     y="31"
     width="1"
     height="1"
     fill="#afa7eb"
     id="rect191" />
  <rect
     x="33"
     y="2"
     width="1"
     height="1"
     fill="#afa7eb"
     id="rect192" />
  <rect
     x="25"
     y="2"
     width="1"
     height="1"
     fill="#b0aeed"
     id="rect193" />
  <rect
     x="32"
     y="1"
     width="1"
     height="1"
     fill="#b0aeed"
     id="rect194" />
  <rect
     x="31"
     y="0"
     width="1"
     height="1"
     fill="#b0b5ef"
     id="rect195" />
  <rect
     x="33"
     y="0"
     width="1"
     height="1"
     fill="#b0b5ef"
     id="rect196" />
  <rect
     x="17"
     y="7"
     width="1"
     height="1"
     fill="#ae8ce2"
     id="rect197" />
  <rect
     x="35"
     y="10"
     width="1"
     height="1"
     fill="#ab74db"
     id="rect198" />
  <rect
     x="16"
     y="8"
     width="1"
     height="1"
     fill="#ae93e4"
     id="rect199" />
  <rect
     x="36"
     y="11"
     width="1"
     height="1"
     fill="#ad77db"
     id="rect200" />
  <rect
     x="15"
     y="8"
     width="1"
     height="1"
     fill="#af99e6"
     id="rect201" />
  <rect
     x="14"
     y="8"
     width="1"
     height="1"
     fill="#afa0e8"
     id="rect202" />
  <rect
     x="13"
     y="7"
     width="1"
     height="1"
     fill="#afa7eb"
     id="rect203" />
  <rect
     x="30"
     y="43"
     width="1"
     height="1"
     fill="#b1d1f9"
     id="rect204" />
  <rect
     x="24"
     y="1"
     width="1"
     height="1"
     fill="#b0b5ef"
     id="rect205" />
  <rect
     x="19"
     y="41"
     width="1"
     height="1"
     fill="#b1c3f4"
     id="rect206" />
  <rect
     x="37"
     y="12"
     width="1"
     height="1"
     fill="#ad7edd"
     id="rect207" />
  <rect
     x="20"
     y="42"
     width="1"
     height="1"
     fill="#b1caf6"
     id="rect208" />
  <rect
     x="7"
     y="32"
     width="1"
     height="1"
     fill="#b0aeed"
     id="rect209" />
  <rect
     x="6"
     y="31"
     width="1"
     height="1"
     fill="#b0b5ef"
     id="rect210" />
  <rect
     x="29"
     y="44"
     width="1"
     height="1"
     fill="#b1d8fb"
     id="rect211" />
  <rect
     x="29"
     y="45"
     width="1"
     height="1"
     fill="#b2dffd"
     id="rect212" />
  <rect
     x="38"
     y="12"
     width="1"
     height="1"
     fill="#ae85df"
     id="rect213" />
  <rect
     x="38"
     y="13"
     width="1"
     height="1"
     fill="#ae85df"
     id="rect214" />
  <rect
     x="6"
     y="33"
     width="1"
     height="1"
     fill="#b0b5ef"
     id="rect215" />
  <rect
     x="7"
     y="34"
     width="1"
     height="1"
     fill="#b0bcf2"
     id="rect216" />
  <rect
     x="28"
     y="46"
     width="1"
     height="1"
     fill="#b2e4ff"
     id="rect217" />
  <rect
     x="6"
     y="35"
     width="1"
     height="1"
     fill="#b1c3f4"
     id="rect218" />
</svg>
